<!-- APP ICON SVG (256x256) --> <svg width="256" height="256" viewBox="0 0 256 256" xmlns="http://www.w3.org/2000/svg"> <defs> <linearGradient id="bgGradient" x1="0%" y1="0%" x2="100%" y2="100%"> <stop offset="0%" style="stop-color:#1e3d59;stop-opacity:1" /> <stop offset="50%" style="stop-color:#0ea5e9;stop-opacity:1" /> <stop offset="100%" style="stop-color:#0284c7;stop-opacity:1" /> </linearGradient> <linearGradient id="chartGradient" x1="0%" y1="100%" x2="100%" y2="0%"> <stop offset="0%" style="stop-color:#059669;stop-opacity:0.9" /> <stop offset="100%" style="stop-color:#10b981;stop-opacity:1" /> </linearGradient> <radialGradient id="euroGradient" cx="50%" cy="30%" r="70%"> <stop offset="0%" style="stop-color:#fef3c7;stop-opacity:1" /> <stop offset="40%" style="stop-color:#f59e0b;stop-opacity:1" /> <stop offset="100%" style="stop-color:#d97706;stop-opacity:1" /> </radialGradient> <filter id="shadow" x="-50%" y="-50%" width="200%" height="200%"> <feDropShadow dx="2" dy="4" stdDeviation="3" flood-opacity="0.25"/> </filter> </defs> <rect width="256" height="256" rx="48" ry="48" fill="url(#bgGradient)"/> <rect x="4" y="4" width="248" height="248" rx="44" ry="44" fill="none" stroke="rgba(255,255,255,0.15)" stroke-width="2"/> <rect x="40" y="100" width="176" height="120" rx="8" ry="8" fill="rgba(255,255,255,0.95)" filter="url(#shadow)"/> <rect x="50" y="115" width="156" height="85" rx="4" ry="4" fill="rgba(248,250,252,1)"/> <g stroke="rgba(148,163,184,0.3)" stroke-width="1"> <line x1="50" y1="130" x2="206" y2="130"/> <line x1="50" y1="150" x2="206" y2="150"/> <line x1="50" y1="170" x2="206" y2="170"/> <line x1="50" y1="190" x2="206" y2="190"/> <line x1="70" y1="115" x2="70" y2="200"/> <line x1="110" y1="115" x2="110" y2="200"/> <line x1="150" y1="115" x2="150" y2="200"/> <line x1="190" y1="115" x2="190" y2="200"/> </g> <polyline points="50,180 70,170 90,165 110,170 130,160 150,150 170,140 190,125 206,120" fill="none" stroke="url(#chartGradient)" stroke-width="4" stroke-linecap="round" stroke-linejoin="round"/> <polygon points="50,180 70,170 90,165 110,170 130,160 150,150 170,140 190,125 206,120 206,200 50,200" fill="url(#chartGradient)" opacity="0.15"/> <circle cx="70" cy="170" r="3" fill="#059669"/> <circle cx="90" cy="165" r="3" fill="#059669"/> <circle cx="130" cy="160" r="3" fill="#059669"/> <circle cx="170" cy="140" r="3" fill="#059669"/> <circle cx="190" cy="125" r="3" fill="#059669"/> <circle cx="180" cy="65" r="32" fill="url(#euroGradient)" filter="url(#shadow)"/> <circle cx="180" cy="65" r="28" fill="none" stroke="rgba(217,119,6,0.3)" stroke-width="1"/> <text x="180" y="78" text-anchor="middle" font-family="Arial, sans-serif" font-size="38" font-weight="900" fill="#1f2937">€</text> <rect x="40" y="230" width="176" height="16" rx="4" ry="4" fill="rgba(255,255,255,0.1)"/> <text x="128" y="241" text-anchor="middle" font-family="Arial, sans-serif" font-size="10" font-weight="600" fill="rgba(255,255,255,0.9)">PORTFOLIO TRACKER</text> </svg>